<mxfile host="app.diagrams.net" agent="Mozilla/5.0 (Windows NT 10.0; Win64; x64) AppleWebKit/537.36 (KHTML, like Gecko) Chrome/130.0.0.0 Safari/537.36" version="24.8.3">
  <diagram name="PÃ¡gina-1" id="fVnwWc-SGSTXirosFGTA">
    <mxGraphModel grid="1" page="1" gridSize="10" guides="1" tooltips="1" connect="1" arrows="1" fold="1" pageScale="1" pageWidth="827" pageHeight="1169" math="0" shadow="0">
      <root>
        <mxCell id="0" />
        <mxCell id="1" parent="0" />
        <mxCell id="8eB8P4JYL27zoDjW_qmx-3" value="" style="edgeStyle=orthogonalEdgeStyle;rounded=0;orthogonalLoop=1;jettySize=auto;html=1;" edge="1" parent="1" source="8eB8P4JYL27zoDjW_qmx-1" target="8eB8P4JYL27zoDjW_qmx-2">
          <mxGeometry relative="1" as="geometry" />
        </mxCell>
        <mxCell id="8eB8P4JYL27zoDjW_qmx-1" value="Config&lt;div&gt;Peripherals&lt;/div&gt;" style="rounded=0;whiteSpace=wrap;html=1;" vertex="1" parent="1">
          <mxGeometry x="200" y="160" width="120" height="60" as="geometry" />
        </mxCell>
        <mxCell id="8eB8P4JYL27zoDjW_qmx-5" value="" style="edgeStyle=orthogonalEdgeStyle;rounded=0;orthogonalLoop=1;jettySize=auto;html=1;" edge="1" parent="1" source="8eB8P4JYL27zoDjW_qmx-2" target="8eB8P4JYL27zoDjW_qmx-4">
          <mxGeometry relative="1" as="geometry" />
        </mxCell>
        <mxCell id="8eB8P4JYL27zoDjW_qmx-2" value="Load Timer 0 (1s)" style="rounded=0;whiteSpace=wrap;html=1;" vertex="1" parent="1">
          <mxGeometry x="200" y="250" width="120" height="60" as="geometry" />
        </mxCell>
        <mxCell id="8eB8P4JYL27zoDjW_qmx-4" value="while(TRUE)" style="rounded=0;whiteSpace=wrap;html=1;" vertex="1" parent="1">
          <mxGeometry x="200" y="340" width="120" height="60" as="geometry" />
        </mxCell>
        <mxCell id="8eB8P4JYL27zoDjW_qmx-8" value="" style="edgeStyle=orthogonalEdgeStyle;rounded=0;orthogonalLoop=1;jettySize=auto;html=1;" edge="1" parent="1" source="8eB8P4JYL27zoDjW_qmx-6" target="8eB8P4JYL27zoDjW_qmx-7">
          <mxGeometry relative="1" as="geometry" />
        </mxCell>
        <mxCell id="8eB8P4JYL27zoDjW_qmx-6" value="Eint3" style="rounded=0;whiteSpace=wrap;html=1;" vertex="1" parent="1">
          <mxGeometry x="40" y="435" width="120" height="60" as="geometry" />
        </mxCell>
        <mxCell id="8eB8P4JYL27zoDjW_qmx-10" value="" style="edgeStyle=orthogonalEdgeStyle;rounded=0;orthogonalLoop=1;jettySize=auto;html=1;" edge="1" parent="1" source="8eB8P4JYL27zoDjW_qmx-7" target="8eB8P4JYL27zoDjW_qmx-9">
          <mxGeometry relative="1" as="geometry" />
        </mxCell>
        <mxCell id="8eB8P4JYL27zoDjW_qmx-7" value="Clear Flag&amp;nbsp;" style="rounded=0;whiteSpace=wrap;html=1;" vertex="1" parent="1">
          <mxGeometry x="200" y="435" width="120" height="60" as="geometry" />
        </mxCell>
        <mxCell id="8eB8P4JYL27zoDjW_qmx-12" value="" style="edgeStyle=orthogonalEdgeStyle;rounded=0;orthogonalLoop=1;jettySize=auto;html=1;entryX=0;entryY=0.5;entryDx=0;entryDy=0;" edge="1" parent="1" source="8eB8P4JYL27zoDjW_qmx-9" target="8eB8P4JYL27zoDjW_qmx-13">
          <mxGeometry relative="1" as="geometry">
            <mxPoint x="530" y="465" as="targetPoint" />
          </mxGeometry>
        </mxCell>
        <mxCell id="8eB8P4JYL27zoDjW_qmx-9" value="ToggleStatusDoor()" style="rounded=0;whiteSpace=wrap;html=1;" vertex="1" parent="1">
          <mxGeometry x="360" y="435" width="120" height="60" as="geometry" />
        </mxCell>
        <mxCell id="8eB8P4JYL27zoDjW_qmx-16" value="" style="edgeStyle=orthogonalEdgeStyle;rounded=0;orthogonalLoop=1;jettySize=auto;html=1;" edge="1" parent="1" source="8eB8P4JYL27zoDjW_qmx-13" target="8eB8P4JYL27zoDjW_qmx-15">
          <mxGeometry relative="1" as="geometry" />
        </mxCell>
        <mxCell id="8eB8P4JYL27zoDjW_qmx-17" value="yes" style="edgeLabel;html=1;align=center;verticalAlign=middle;resizable=0;points=[];" connectable="0" vertex="1" parent="8eB8P4JYL27zoDjW_qmx-16">
          <mxGeometry x="-0.16" y="2" relative="1" as="geometry">
            <mxPoint as="offset" />
          </mxGeometry>
        </mxCell>
        <mxCell id="8eB8P4JYL27zoDjW_qmx-19" value="" style="edgeStyle=orthogonalEdgeStyle;rounded=0;orthogonalLoop=1;jettySize=auto;html=1;" edge="1" parent="1" source="8eB8P4JYL27zoDjW_qmx-13" target="8eB8P4JYL27zoDjW_qmx-18">
          <mxGeometry relative="1" as="geometry" />
        </mxCell>
        <mxCell id="8eB8P4JYL27zoDjW_qmx-20" value="no" style="edgeLabel;html=1;align=center;verticalAlign=middle;resizable=0;points=[];" connectable="0" vertex="1" parent="8eB8P4JYL27zoDjW_qmx-19">
          <mxGeometry x="-0.0667" y="2" relative="1" as="geometry">
            <mxPoint as="offset" />
          </mxGeometry>
        </mxCell>
        <mxCell id="8eB8P4JYL27zoDjW_qmx-13" value="StatusDoor&lt;div&gt;==1&lt;/div&gt;" style="rhombus;whiteSpace=wrap;html=1;" vertex="1" parent="1">
          <mxGeometry x="535" y="420" width="90" height="90" as="geometry" />
        </mxCell>
        <mxCell id="8eB8P4JYL27zoDjW_qmx-30" value="" style="edgeStyle=orthogonalEdgeStyle;rounded=0;orthogonalLoop=1;jettySize=auto;html=1;" edge="1" parent="1" source="8eB8P4JYL27zoDjW_qmx-15" target="8eB8P4JYL27zoDjW_qmx-28">
          <mxGeometry relative="1" as="geometry" />
        </mxCell>
        <mxCell id="8eB8P4JYL27zoDjW_qmx-15" value="DriverDoor(open)&lt;br&gt;&lt;div&gt;LedRed(on)&lt;/div&gt;&lt;div&gt;LedGreen(off)&lt;/div&gt;" style="rounded=0;whiteSpace=wrap;html=1;" vertex="1" parent="1">
          <mxGeometry x="682" y="435" width="120" height="60" as="geometry" />
        </mxCell>
        <mxCell id="8eB8P4JYL27zoDjW_qmx-29" value="" style="edgeStyle=orthogonalEdgeStyle;rounded=0;orthogonalLoop=1;jettySize=auto;html=1;" edge="1" parent="1" source="8eB8P4JYL27zoDjW_qmx-18" target="8eB8P4JYL27zoDjW_qmx-28">
          <mxGeometry relative="1" as="geometry" />
        </mxCell>
        <mxCell id="8eB8P4JYL27zoDjW_qmx-18" value="&lt;div&gt;&lt;div&gt;DriverDoor(close)&lt;/div&gt;&lt;div&gt;LedRed(off)&lt;/div&gt;&lt;div&gt;LedGreen(on)&lt;/div&gt;&lt;/div&gt;" style="whiteSpace=wrap;html=1;" vertex="1" parent="1">
          <mxGeometry x="520" y="555" width="120" height="60" as="geometry" />
        </mxCell>
        <mxCell id="8eB8P4JYL27zoDjW_qmx-28" value="main" style="rounded=0;whiteSpace=wrap;html=1;" vertex="1" parent="1">
          <mxGeometry x="682" y="555" width="120" height="60" as="geometry" />
        </mxCell>
        <mxCell id="8eB8P4JYL27zoDjW_qmx-35" value="" style="edgeStyle=orthogonalEdgeStyle;rounded=0;orthogonalLoop=1;jettySize=auto;html=1;" edge="1" parent="1" source="8eB8P4JYL27zoDjW_qmx-33" target="8eB8P4JYL27zoDjW_qmx-34">
          <mxGeometry relative="1" as="geometry" />
        </mxCell>
        <mxCell id="8eB8P4JYL27zoDjW_qmx-33" value="Timer0" style="rounded=0;whiteSpace=wrap;html=1;" vertex="1" parent="1">
          <mxGeometry x="42" y="645" width="120" height="60" as="geometry" />
        </mxCell>
        <mxCell id="8eB8P4JYL27zoDjW_qmx-37" value="" style="edgeStyle=orthogonalEdgeStyle;rounded=0;orthogonalLoop=1;jettySize=auto;html=1;" edge="1" parent="1" source="8eB8P4JYL27zoDjW_qmx-34" target="8eB8P4JYL27zoDjW_qmx-36">
          <mxGeometry relative="1" as="geometry" />
        </mxCell>
        <mxCell id="8eB8P4JYL27zoDjW_qmx-42" value="yes" style="edgeLabel;html=1;align=center;verticalAlign=middle;resizable=0;points=[];" connectable="0" vertex="1" parent="8eB8P4JYL27zoDjW_qmx-37">
          <mxGeometry x="-0.2963" y="-1" relative="1" as="geometry">
            <mxPoint as="offset" />
          </mxGeometry>
        </mxCell>
        <mxCell id="016bpxPZCQfGUJjMZ0eV-3" style="edgeStyle=orthogonalEdgeStyle;rounded=0;orthogonalLoop=1;jettySize=auto;html=1;entryX=0;entryY=0.5;entryDx=0;entryDy=0;" edge="1" parent="1" source="8eB8P4JYL27zoDjW_qmx-34" target="016bpxPZCQfGUJjMZ0eV-2">
          <mxGeometry relative="1" as="geometry">
            <Array as="points">
              <mxPoint x="257" y="760" />
            </Array>
          </mxGeometry>
        </mxCell>
        <mxCell id="016bpxPZCQfGUJjMZ0eV-44" value="no" style="edgeLabel;html=1;align=center;verticalAlign=middle;resizable=0;points=[];" connectable="0" vertex="1" parent="016bpxPZCQfGUJjMZ0eV-3">
          <mxGeometry x="0.2266" y="-3" relative="1" as="geometry">
            <mxPoint as="offset" />
          </mxGeometry>
        </mxCell>
        <mxCell id="8eB8P4JYL27zoDjW_qmx-34" value="Flag Match0" style="rhombus;whiteSpace=wrap;html=1;rounded=0;" vertex="1" parent="1">
          <mxGeometry x="212" y="630" width="90" height="90" as="geometry" />
        </mxCell>
        <mxCell id="8eB8P4JYL27zoDjW_qmx-39" value="" style="edgeStyle=orthogonalEdgeStyle;rounded=0;orthogonalLoop=1;jettySize=auto;html=1;" edge="1" parent="1" source="8eB8P4JYL27zoDjW_qmx-36" target="8eB8P4JYL27zoDjW_qmx-38">
          <mxGeometry relative="1" as="geometry" />
        </mxCell>
        <mxCell id="8eB8P4JYL27zoDjW_qmx-36" value="Clear Flag&amp;nbsp;" style="whiteSpace=wrap;html=1;rounded=0;" vertex="1" parent="1">
          <mxGeometry x="362" y="645" width="120" height="60" as="geometry" />
        </mxCell>
        <mxCell id="8eB8P4JYL27zoDjW_qmx-41" value="" style="edgeStyle=orthogonalEdgeStyle;rounded=0;orthogonalLoop=1;jettySize=auto;html=1;" edge="1" parent="1" source="8eB8P4JYL27zoDjW_qmx-38" target="8eB8P4JYL27zoDjW_qmx-40">
          <mxGeometry relative="1" as="geometry" />
        </mxCell>
        <mxCell id="8eB8P4JYL27zoDjW_qmx-38" value="Start ADC" style="rounded=0;whiteSpace=wrap;html=1;" vertex="1" parent="1">
          <mxGeometry x="522" y="645" width="120" height="60" as="geometry" />
        </mxCell>
        <mxCell id="8eB8P4JYL27zoDjW_qmx-40" value="main" style="whiteSpace=wrap;html=1;rounded=0;" vertex="1" parent="1">
          <mxGeometry x="682" y="645" width="120" height="60" as="geometry" />
        </mxCell>
        <mxCell id="8eB8P4JYL27zoDjW_qmx-48" value="" style="edgeStyle=orthogonalEdgeStyle;rounded=0;orthogonalLoop=1;jettySize=auto;html=1;" edge="1" parent="1" source="8eB8P4JYL27zoDjW_qmx-46" target="8eB8P4JYL27zoDjW_qmx-47">
          <mxGeometry relative="1" as="geometry" />
        </mxCell>
        <mxCell id="8eB8P4JYL27zoDjW_qmx-46" value="Systick" style="rounded=0;whiteSpace=wrap;html=1;" vertex="1" parent="1">
          <mxGeometry x="44" y="1140" width="120" height="60" as="geometry" />
        </mxCell>
        <mxCell id="8eB8P4JYL27zoDjW_qmx-50" value="" style="edgeStyle=orthogonalEdgeStyle;rounded=0;orthogonalLoop=1;jettySize=auto;html=1;" edge="1" parent="1" source="8eB8P4JYL27zoDjW_qmx-47" target="8eB8P4JYL27zoDjW_qmx-49">
          <mxGeometry relative="1" as="geometry" />
        </mxCell>
        <mxCell id="8eB8P4JYL27zoDjW_qmx-47" value="Clear Flag" style="rounded=0;whiteSpace=wrap;html=1;" vertex="1" parent="1">
          <mxGeometry x="199" y="1140" width="120" height="60" as="geometry" />
        </mxCell>
        <mxCell id="WaIrhFtMWVXsqzC9RZ-3-1" style="edgeStyle=orthogonalEdgeStyle;rounded=0;orthogonalLoop=1;jettySize=auto;html=1;entryX=0;entryY=0.5;entryDx=0;entryDy=0;" edge="1" parent="1" source="8eB8P4JYL27zoDjW_qmx-49" target="8eB8P4JYL27zoDjW_qmx-51">
          <mxGeometry relative="1" as="geometry" />
        </mxCell>
        <mxCell id="8eB8P4JYL27zoDjW_qmx-49" value="Start UART" style="whiteSpace=wrap;html=1;rounded=0;" vertex="1" parent="1">
          <mxGeometry x="364" y="1140" width="120" height="60" as="geometry" />
        </mxCell>
        <mxCell id="8eB8P4JYL27zoDjW_qmx-51" value="main" style="whiteSpace=wrap;html=1;rounded=0;" vertex="1" parent="1">
          <mxGeometry x="521" y="1140" width="120" height="60" as="geometry" />
        </mxCell>
        <mxCell id="8eB8P4JYL27zoDjW_qmx-87" value="" style="edgeStyle=orthogonalEdgeStyle;rounded=0;orthogonalLoop=1;jettySize=auto;html=1;" edge="1" parent="1" source="8eB8P4JYL27zoDjW_qmx-58" target="8eB8P4JYL27zoDjW_qmx-86">
          <mxGeometry relative="1" as="geometry" />
        </mxCell>
        <mxCell id="8eB8P4JYL27zoDjW_qmx-58" value="DMA" style="rounded=0;whiteSpace=wrap;html=1;" vertex="1" parent="1">
          <mxGeometry x="48" y="1325.5" width="120" height="60" as="geometry" />
        </mxCell>
        <mxCell id="8eB8P4JYL27zoDjW_qmx-67" value="" style="edgeStyle=orthogonalEdgeStyle;rounded=0;orthogonalLoop=1;jettySize=auto;html=1;" edge="1" parent="1" source="8eB8P4JYL27zoDjW_qmx-65" target="8eB8P4JYL27zoDjW_qmx-66">
          <mxGeometry relative="1" as="geometry" />
        </mxCell>
        <mxCell id="8eB8P4JYL27zoDjW_qmx-76" value="yes" style="edgeLabel;html=1;align=center;verticalAlign=middle;resizable=0;points=[];" connectable="0" vertex="1" parent="8eB8P4JYL27zoDjW_qmx-67">
          <mxGeometry x="-0.5385" y="-2" relative="1" as="geometry">
            <mxPoint x="15" y="-2" as="offset" />
          </mxGeometry>
        </mxCell>
        <mxCell id="-OxwoprhxGSVRETvBmhZ-9" value="" style="edgeStyle=orthogonalEdgeStyle;rounded=0;orthogonalLoop=1;jettySize=auto;html=1;entryX=0.5;entryY=0;entryDx=0;entryDy=0;" edge="1" parent="1" source="8eB8P4JYL27zoDjW_qmx-65" target="-OxwoprhxGSVRETvBmhZ-1">
          <mxGeometry relative="1" as="geometry">
            <mxPoint x="412.5" y="1440" as="targetPoint" />
          </mxGeometry>
        </mxCell>
        <mxCell id="-OxwoprhxGSVRETvBmhZ-11" value="no" style="edgeLabel;html=1;align=center;verticalAlign=middle;resizable=0;points=[];" connectable="0" vertex="1" parent="-OxwoprhxGSVRETvBmhZ-9">
          <mxGeometry x="-0.732" y="1" relative="1" as="geometry">
            <mxPoint y="14" as="offset" />
          </mxGeometry>
        </mxCell>
        <mxCell id="8eB8P4JYL27zoDjW_qmx-65" value="Data[1]&amp;lt;&lt;div&gt;TempMin&lt;/div&gt;" style="rhombus;whiteSpace=wrap;html=1;" vertex="1" parent="1">
          <mxGeometry x="368" y="1310" width="90" height="91" as="geometry" />
        </mxCell>
        <mxCell id="WaIrhFtMWVXsqzC9RZ-3-8" style="edgeStyle=orthogonalEdgeStyle;rounded=0;orthogonalLoop=1;jettySize=auto;html=1;exitX=1;exitY=0.5;exitDx=0;exitDy=0;" edge="1" parent="1" source="8eB8P4JYL27zoDjW_qmx-66">
          <mxGeometry relative="1" as="geometry">
            <mxPoint x="416" y="1440" as="targetPoint" />
            <mxPoint x="666" y="1360" as="sourcePoint" />
            <Array as="points">
              <mxPoint x="707" y="1356" />
              <mxPoint x="707" y="1440" />
            </Array>
          </mxGeometry>
        </mxCell>
        <mxCell id="8eB8P4JYL27zoDjW_qmx-66" value="&lt;div&gt;CloseDoor()&lt;/div&gt;&lt;div&gt;DisableFan()&lt;/div&gt;Disable Eint3" style="whiteSpace=wrap;html=1;" vertex="1" parent="1">
          <mxGeometry x="523" y="1325.5" width="120" height="60" as="geometry" />
        </mxCell>
        <mxCell id="8eB8P4JYL27zoDjW_qmx-75" value="" style="edgeStyle=orthogonalEdgeStyle;rounded=0;orthogonalLoop=1;jettySize=auto;html=1;" edge="1" parent="1" source="8eB8P4JYL27zoDjW_qmx-70" target="8eB8P4JYL27zoDjW_qmx-74">
          <mxGeometry relative="1" as="geometry" />
        </mxCell>
        <mxCell id="8eB8P4JYL27zoDjW_qmx-70" value="&lt;div&gt;OpenDoor()&lt;/div&gt;&lt;div&gt;EnableFan()&lt;/div&gt;Enable Eint3" style="rounded=0;whiteSpace=wrap;html=1;" vertex="1" parent="1">
          <mxGeometry x="514.25" y="1475.5" width="120" height="60" as="geometry" />
        </mxCell>
        <mxCell id="8eB8P4JYL27zoDjW_qmx-74" value="main" style="whiteSpace=wrap;html=1;rounded=0;" vertex="1" parent="1">
          <mxGeometry x="684.25" y="1475.5" width="120" height="60" as="geometry" />
        </mxCell>
        <mxCell id="8eB8P4JYL27zoDjW_qmx-81" value="" style="edgeStyle=orthogonalEdgeStyle;rounded=0;orthogonalLoop=1;jettySize=auto;html=1;" edge="1" parent="1" source="8eB8P4JYL27zoDjW_qmx-79" target="8eB8P4JYL27zoDjW_qmx-80">
          <mxGeometry relative="1" as="geometry" />
        </mxCell>
        <mxCell id="8eB8P4JYL27zoDjW_qmx-79" value="UART" style="rounded=0;whiteSpace=wrap;html=1;" vertex="1" parent="1">
          <mxGeometry x="46" y="1230" width="120" height="60" as="geometry" />
        </mxCell>
        <mxCell id="8eB8P4JYL27zoDjW_qmx-83" value="" style="edgeStyle=orthogonalEdgeStyle;rounded=0;orthogonalLoop=1;jettySize=auto;html=1;" edge="1" parent="1" source="8eB8P4JYL27zoDjW_qmx-80" target="8eB8P4JYL27zoDjW_qmx-82">
          <mxGeometry relative="1" as="geometry" />
        </mxCell>
        <mxCell id="8eB8P4JYL27zoDjW_qmx-80" value="Clear Flag" style="whiteSpace=wrap;html=1;rounded=0;" vertex="1" parent="1">
          <mxGeometry x="203" y="1230" width="120" height="60" as="geometry" />
        </mxCell>
        <mxCell id="WaIrhFtMWVXsqzC9RZ-3-3" value="" style="edgeStyle=orthogonalEdgeStyle;rounded=0;orthogonalLoop=1;jettySize=auto;html=1;" edge="1" parent="1" source="8eB8P4JYL27zoDjW_qmx-82" target="WaIrhFtMWVXsqzC9RZ-3-2">
          <mxGeometry relative="1" as="geometry" />
        </mxCell>
        <mxCell id="8eB8P4JYL27zoDjW_qmx-82" value="CleanData()" style="rounded=0;whiteSpace=wrap;html=1;" vertex="1" parent="1">
          <mxGeometry x="368" y="1230" width="120" height="60" as="geometry" />
        </mxCell>
        <mxCell id="8eB8P4JYL27zoDjW_qmx-84" value="main" style="whiteSpace=wrap;html=1;rounded=0;" vertex="1" parent="1">
          <mxGeometry x="688" y="1230" width="120" height="60" as="geometry" />
        </mxCell>
        <mxCell id="8eB8P4JYL27zoDjW_qmx-88" value="" style="edgeStyle=orthogonalEdgeStyle;rounded=0;orthogonalLoop=1;jettySize=auto;html=1;" edge="1" parent="1" source="8eB8P4JYL27zoDjW_qmx-86" target="8eB8P4JYL27zoDjW_qmx-65">
          <mxGeometry relative="1" as="geometry" />
        </mxCell>
        <mxCell id="8eB8P4JYL27zoDjW_qmx-86" value="Clear Flag" style="whiteSpace=wrap;html=1;rounded=0;" vertex="1" parent="1">
          <mxGeometry x="203" y="1325.5" width="120" height="60" as="geometry" />
        </mxCell>
        <mxCell id="8eB8P4JYL27zoDjW_qmx-90" value="&lt;blockquote style=&quot;margin: 0 0 0 40px; border: none; padding: 0px;&quot;&gt;&lt;br&gt;&lt;/blockquote&gt;" style="rounded=0;whiteSpace=wrap;html=1;align=left;" vertex="1" parent="1">
          <mxGeometry x="44" y="1700" width="740" height="200" as="geometry" />
        </mxCell>
        <mxCell id="8eB8P4JYL27zoDjW_qmx-93" value="" style="edgeStyle=orthogonalEdgeStyle;rounded=0;orthogonalLoop=1;jettySize=auto;html=1;" edge="1" parent="1" source="8eB8P4JYL27zoDjW_qmx-91" target="8eB8P4JYL27zoDjW_qmx-92">
          <mxGeometry relative="1" as="geometry" />
        </mxCell>
        <mxCell id="8eB8P4JYL27zoDjW_qmx-94" value="DMA CH1 P2M&lt;div&gt;SIZE 3&lt;/div&gt;&lt;div&gt;WS=16b&lt;/div&gt;&lt;div&gt;WD=16b&lt;/div&gt;" style="edgeLabel;html=1;align=center;verticalAlign=middle;resizable=0;points=[];" connectable="0" vertex="1" parent="8eB8P4JYL27zoDjW_qmx-93">
          <mxGeometry x="-0.0345" y="-2" relative="1" as="geometry">
            <mxPoint y="28" as="offset" />
          </mxGeometry>
        </mxCell>
        <mxCell id="8eB8P4JYL27zoDjW_qmx-91" value="ADC Ch0&lt;div&gt;ADC Ch1&lt;/div&gt;&lt;div&gt;ADC Ch2&lt;/div&gt;" style="rounded=0;whiteSpace=wrap;html=1;" vertex="1" parent="1">
          <mxGeometry x="69" y="1750" width="115" height="60" as="geometry" />
        </mxCell>
        <mxCell id="8eB8P4JYL27zoDjW_qmx-97" value="" style="edgeStyle=orthogonalEdgeStyle;rounded=0;orthogonalLoop=1;jettySize=auto;html=1;" edge="1" parent="1" source="8eB8P4JYL27zoDjW_qmx-92" target="8eB8P4JYL27zoDjW_qmx-96">
          <mxGeometry relative="1" as="geometry" />
        </mxCell>
        <mxCell id="8eB8P4JYL27zoDjW_qmx-98" value="DAM CH1 M2P&lt;div&gt;SIZE 1&lt;/div&gt;&lt;div&gt;WS=16b&lt;/div&gt;&lt;div&gt;WD=16b&lt;/div&gt;&lt;div&gt;TIMEOUT 20ms&lt;/div&gt;" style="edgeLabel;html=1;align=center;verticalAlign=middle;resizable=0;points=[];" connectable="0" vertex="1" parent="8eB8P4JYL27zoDjW_qmx-97">
          <mxGeometry y="-1" relative="1" as="geometry">
            <mxPoint y="39" as="offset" />
          </mxGeometry>
        </mxCell>
        <mxCell id="8eB8P4JYL27zoDjW_qmx-92" value="&amp;nbsp;Data[1] Temp&lt;div&gt;&lt;span style=&quot;background-color: initial;&quot;&gt;Data[2] Light&lt;/span&gt;&lt;/div&gt;&lt;div&gt;&lt;span style=&quot;background-color: initial;&quot;&gt;Data[3] CO&lt;/span&gt;&lt;/div&gt;" style="whiteSpace=wrap;html=1;rounded=0;" vertex="1" parent="1">
          <mxGeometry x="329" y="1750" width="120" height="60" as="geometry" />
        </mxCell>
        <mxCell id="8eB8P4JYL27zoDjW_qmx-96" value="DAC" style="whiteSpace=wrap;html=1;rounded=0;" vertex="1" parent="1">
          <mxGeometry x="619" y="1750" width="120" height="60" as="geometry" />
        </mxCell>
        <mxCell id="8eB8P4JYL27zoDjW_qmx-99" value="DMA behavior" style="text;html=1;align=center;verticalAlign=middle;whiteSpace=wrap;rounded=0;" vertex="1" parent="1">
          <mxGeometry x="44" y="1710" width="109" height="30" as="geometry" />
        </mxCell>
        <mxCell id="8eB8P4JYL27zoDjW_qmx-100" value="&lt;blockquote style=&quot;margin: 0 0 0 40px; border: none; padding: 0px;&quot;&gt;&lt;br&gt;&lt;/blockquote&gt;" style="rounded=0;whiteSpace=wrap;html=1;align=left;" vertex="1" parent="1">
          <mxGeometry x="44" y="1930" width="740" height="200" as="geometry" />
        </mxCell>
        <mxCell id="8eB8P4JYL27zoDjW_qmx-101" value="UART behavior" style="text;html=1;align=center;verticalAlign=middle;whiteSpace=wrap;rounded=0;" vertex="1" parent="1">
          <mxGeometry x="61.25" y="1950" width="85.5" height="30" as="geometry" />
        </mxCell>
        <mxCell id="8eB8P4JYL27zoDjW_qmx-105" value="" style="edgeStyle=orthogonalEdgeStyle;rounded=0;orthogonalLoop=1;jettySize=auto;html=1;" edge="1" parent="1" source="8eB8P4JYL27zoDjW_qmx-102" target="8eB8P4JYL27zoDjW_qmx-104">
          <mxGeometry relative="1" as="geometry" />
        </mxCell>
        <mxCell id="8eB8P4JYL27zoDjW_qmx-106" value="UART TX 9600bps" style="edgeLabel;html=1;align=center;verticalAlign=middle;resizable=0;points=[];" connectable="0" vertex="1" parent="8eB8P4JYL27zoDjW_qmx-105">
          <mxGeometry x="0.2608" y="2" relative="1" as="geometry">
            <mxPoint x="-12" y="12" as="offset" />
          </mxGeometry>
        </mxCell>
        <mxCell id="8eB8P4JYL27zoDjW_qmx-102" value="&lt;div style=&quot;text-align: justify;&quot;&gt;&lt;span style=&quot;background-color: initial;&quot;&gt;Data[1]=StatusDoor&lt;/span&gt;&lt;/div&gt;&lt;div style=&quot;text-align: justify;&quot;&gt;Data[2]=Temp&lt;/div&gt;&lt;div style=&quot;text-align: justify;&quot;&gt;Data[3]=Ligth&lt;/div&gt;&lt;div style=&quot;text-align: justify;&quot;&gt;Data[4]=CO&lt;/div&gt;" style="rounded=0;whiteSpace=wrap;html=1;" vertex="1" parent="1">
          <mxGeometry x="196.5" y="1960" width="125" height="140" as="geometry" />
        </mxCell>
        <mxCell id="8eB8P4JYL27zoDjW_qmx-104" value="PC" style="whiteSpace=wrap;html=1;rounded=0;" vertex="1" parent="1">
          <mxGeometry x="519" y="2000" width="120" height="60" as="geometry" />
        </mxCell>
        <mxCell id="8eB8P4JYL27zoDjW_qmx-107" value="&lt;div style=&quot;text-align: justify;&quot;&gt;&lt;span style=&quot;background-color: initial;&quot;&gt;global variables:&lt;/span&gt;&lt;/div&gt;&lt;div style=&quot;text-align: justify;&quot;&gt;&lt;span style=&quot;background-color: initial;&quot;&gt;&lt;br&gt;&lt;/span&gt;&lt;/div&gt;&lt;div style=&quot;text-align: justify;&quot;&gt;&lt;span style=&quot;background-color: initial;&quot;&gt;Data[0]=StatusDoor&lt;/span&gt;&lt;/div&gt;&lt;div style=&quot;text-align: justify;&quot;&gt;&lt;span style=&quot;background-color: initial;&quot;&gt;Data[1]=Temp&lt;/span&gt;&lt;/div&gt;&lt;div style=&quot;text-align: justify;&quot;&gt;Data[2]=Ligth&lt;/div&gt;&lt;div style=&quot;text-align: justify;&quot;&gt;Data[3]=CO&lt;/div&gt;&lt;div style=&quot;text-align: justify;&quot;&gt;cont_ledTX&lt;/div&gt;&lt;div style=&quot;text-align: justify;&quot;&gt;cont_step&lt;/div&gt;&lt;div style=&quot;text-align: justify;&quot;&gt;&lt;br&gt;&lt;/div&gt;" style="rounded=0;whiteSpace=wrap;html=1;" vertex="1" parent="1">
          <mxGeometry x="346.5" y="70" width="133.5" height="130" as="geometry" />
        </mxCell>
        <mxCell id="8eB8P4JYL27zoDjW_qmx-108" value="&lt;div&gt;times:&lt;/div&gt;&lt;div&gt;&lt;br&gt;&lt;/div&gt;Timer0 Match0 1s&lt;div&gt;Timer1 Match0 20ms&lt;/div&gt;&lt;div&gt;Timer2 Match0 10ms&lt;br&gt;&lt;div&gt;Systick 100ms&lt;/div&gt;&lt;/div&gt;" style="rounded=0;whiteSpace=wrap;html=1;" vertex="1" parent="1">
          <mxGeometry x="346.5" y="210" width="133.5" height="90" as="geometry" />
        </mxCell>
        <mxCell id="8eB8P4JYL27zoDjW_qmx-109" value="freq:&lt;div&gt;&lt;br&gt;&lt;div&gt;LPC 100MHz&lt;/div&gt;&lt;div&gt;ADC 100KHz&lt;/div&gt;&lt;div&gt;UART 9600bps&lt;/div&gt;&lt;/div&gt;" style="rounded=0;whiteSpace=wrap;html=1;" vertex="1" parent="1">
          <mxGeometry x="346.5" y="315" width="133.5" height="85" as="geometry" />
        </mxCell>
        <mxCell id="8eB8P4JYL27zoDjW_qmx-110" value="&lt;span style=&quot;font-size: 21px;&quot;&gt;Trabajo final electrÃ³nica digital III: Monitor de puerta&lt;/span&gt;" style="text;html=1;align=center;verticalAlign=middle;whiteSpace=wrap;rounded=0;fontSize=21;" vertex="1" parent="1">
          <mxGeometry y="40" width="415" as="geometry" />
        </mxCell>
        <mxCell id="8eB8P4JYL27zoDjW_qmx-111" value="&lt;div style=&quot;text-align: justify;&quot;&gt;&lt;span style=&quot;background-color: initial;&quot;&gt;Pin out:&lt;/span&gt;&lt;/div&gt;&lt;div style=&quot;text-align: justify;&quot;&gt;&lt;span style=&quot;background-color: initial;&quot;&gt;&lt;br&gt;&lt;/span&gt;&lt;/div&gt;&lt;div style=&quot;text-align: justify;&quot;&gt;led green=P0.4&lt;/div&gt;&lt;div style=&quot;text-align: justify;&quot;&gt;led red=P0.5&lt;/div&gt;&lt;div style=&quot;text-align: justify;&quot;&gt;led UART=P0.6&lt;/div&gt;&lt;div style=&quot;text-align: justify;&quot;&gt;door button=P2.13&lt;/div&gt;&lt;div style=&quot;text-align: justify;&quot;&gt;step =P0.7&lt;/div&gt;&lt;div style=&quot;text-align: justify;&quot;&gt;dir =P0.8&amp;nbsp;&lt;/div&gt;&lt;div style=&quot;text-align: justify;&quot;&gt;dac=P0.26&lt;/div&gt;&lt;div style=&quot;text-align: justify;&quot;&gt;adc_ch0=P0.23&lt;/div&gt;&lt;div style=&quot;text-align: justify;&quot;&gt;adc_ch1=P0.24&lt;/div&gt;&lt;div style=&quot;text-align: justify;&quot;&gt;adc_ch2=P0.25&lt;/div&gt;&lt;div style=&quot;text-align: justify;&quot;&gt;uart_tx=P0.2&lt;/div&gt;&lt;div&gt;&lt;br&gt;&lt;/div&gt;" style="rounded=0;whiteSpace=wrap;html=1;" vertex="1" parent="1">
          <mxGeometry x="505" y="70" width="120" height="330" as="geometry" />
        </mxCell>
        <mxCell id="-OxwoprhxGSVRETvBmhZ-4" value="" style="edgeStyle=orthogonalEdgeStyle;rounded=0;orthogonalLoop=1;jettySize=auto;html=1;" edge="1" parent="1" source="-OxwoprhxGSVRETvBmhZ-1" target="8eB8P4JYL27zoDjW_qmx-70">
          <mxGeometry relative="1" as="geometry" />
        </mxCell>
        <mxCell id="-OxwoprhxGSVRETvBmhZ-5" value="yes" style="edgeLabel;html=1;align=center;verticalAlign=middle;resizable=0;points=[];" connectable="0" vertex="1" parent="-OxwoprhxGSVRETvBmhZ-4">
          <mxGeometry x="-0.2255" y="3" relative="1" as="geometry">
            <mxPoint as="offset" />
          </mxGeometry>
        </mxCell>
        <mxCell id="-OxwoprhxGSVRETvBmhZ-7" value="" style="edgeStyle=orthogonalEdgeStyle;rounded=0;orthogonalLoop=1;jettySize=auto;html=1;" edge="1" parent="1" source="-OxwoprhxGSVRETvBmhZ-1">
          <mxGeometry relative="1" as="geometry">
            <mxPoint x="412.75" y="1590" as="targetPoint" />
          </mxGeometry>
        </mxCell>
        <mxCell id="WaIrhFtMWVXsqzC9RZ-3-7" value="no" style="edgeLabel;html=1;align=center;verticalAlign=middle;resizable=0;points=[];" connectable="0" vertex="1" parent="-OxwoprhxGSVRETvBmhZ-7">
          <mxGeometry x="-0.4634" y="1" relative="1" as="geometry">
            <mxPoint as="offset" />
          </mxGeometry>
        </mxCell>
        <mxCell id="-OxwoprhxGSVRETvBmhZ-1" value="Data[3]&amp;gt;&lt;div&gt;COMax&lt;/div&gt;" style="rhombus;whiteSpace=wrap;html=1;" vertex="1" parent="1">
          <mxGeometry x="367.75" y="1460" width="90" height="91" as="geometry" />
        </mxCell>
        <mxCell id="WaIrhFtMWVXsqzC9RZ-3-4" value="" style="edgeStyle=orthogonalEdgeStyle;rounded=0;orthogonalLoop=1;jettySize=auto;html=1;" edge="1" parent="1" source="WaIrhFtMWVXsqzC9RZ-3-2" target="8eB8P4JYL27zoDjW_qmx-84">
          <mxGeometry relative="1" as="geometry" />
        </mxCell>
        <mxCell id="WaIrhFtMWVXsqzC9RZ-3-2" value="LedTX()" style="whiteSpace=wrap;html=1;rounded=0;" vertex="1" parent="1">
          <mxGeometry x="523" y="1230" width="120" height="60" as="geometry" />
        </mxCell>
        <mxCell id="WaIrhFtMWVXsqzC9RZ-3-11" value="" style="edgeStyle=orthogonalEdgeStyle;rounded=0;orthogonalLoop=1;jettySize=auto;html=1;" edge="1" parent="1" source="WaIrhFtMWVXsqzC9RZ-3-9" target="WaIrhFtMWVXsqzC9RZ-3-10">
          <mxGeometry relative="1" as="geometry" />
        </mxCell>
        <mxCell id="WaIrhFtMWVXsqzC9RZ-3-9" value="Enable Eint3" style="rounded=0;whiteSpace=wrap;html=1;" vertex="1" parent="1">
          <mxGeometry x="353" y="1590" width="120" height="60" as="geometry" />
        </mxCell>
        <mxCell id="WaIrhFtMWVXsqzC9RZ-3-10" value="main" style="whiteSpace=wrap;html=1;rounded=0;" vertex="1" parent="1">
          <mxGeometry x="514.25" y="1590" width="120" height="60" as="geometry" />
        </mxCell>
        <mxCell id="016bpxPZCQfGUJjMZ0eV-2" value="main" style="rounded=0;whiteSpace=wrap;html=1;" vertex="1" parent="1">
          <mxGeometry x="362" y="730" width="120" height="60" as="geometry" />
        </mxCell>
        <mxCell id="016bpxPZCQfGUJjMZ0eV-4" value="" style="edgeStyle=orthogonalEdgeStyle;rounded=0;orthogonalLoop=1;jettySize=auto;html=1;" edge="1" parent="1" source="016bpxPZCQfGUJjMZ0eV-5" target="016bpxPZCQfGUJjMZ0eV-9">
          <mxGeometry relative="1" as="geometry" />
        </mxCell>
        <mxCell id="016bpxPZCQfGUJjMZ0eV-5" value="Timer1" style="rounded=0;whiteSpace=wrap;html=1;" vertex="1" parent="1">
          <mxGeometry x="42" y="805" width="120" height="60" as="geometry" />
        </mxCell>
        <mxCell id="016bpxPZCQfGUJjMZ0eV-6" value="" style="edgeStyle=orthogonalEdgeStyle;rounded=0;orthogonalLoop=1;jettySize=auto;html=1;" edge="1" parent="1" source="016bpxPZCQfGUJjMZ0eV-9" target="016bpxPZCQfGUJjMZ0eV-11">
          <mxGeometry relative="1" as="geometry" />
        </mxCell>
        <mxCell id="016bpxPZCQfGUJjMZ0eV-7" value="yes" style="edgeLabel;html=1;align=center;verticalAlign=middle;resizable=0;points=[];" connectable="0" vertex="1" parent="016bpxPZCQfGUJjMZ0eV-6">
          <mxGeometry x="-0.2963" y="-1" relative="1" as="geometry">
            <mxPoint as="offset" />
          </mxGeometry>
        </mxCell>
        <mxCell id="016bpxPZCQfGUJjMZ0eV-8" style="edgeStyle=orthogonalEdgeStyle;rounded=0;orthogonalLoop=1;jettySize=auto;html=1;entryX=0;entryY=0.5;entryDx=0;entryDy=0;" edge="1" parent="1" source="016bpxPZCQfGUJjMZ0eV-9" target="016bpxPZCQfGUJjMZ0eV-15">
          <mxGeometry relative="1" as="geometry">
            <Array as="points">
              <mxPoint x="257" y="920" />
            </Array>
          </mxGeometry>
        </mxCell>
        <mxCell id="016bpxPZCQfGUJjMZ0eV-46" value="no" style="edgeLabel;html=1;align=center;verticalAlign=middle;resizable=0;points=[];" connectable="0" vertex="1" parent="016bpxPZCQfGUJjMZ0eV-8">
          <mxGeometry x="0.3202" y="3" relative="1" as="geometry">
            <mxPoint x="10" y="3" as="offset" />
          </mxGeometry>
        </mxCell>
        <mxCell id="016bpxPZCQfGUJjMZ0eV-9" value="Flag Match0" style="rhombus;whiteSpace=wrap;html=1;rounded=0;" vertex="1" parent="1">
          <mxGeometry x="212" y="790" width="90" height="90" as="geometry" />
        </mxCell>
        <mxCell id="016bpxPZCQfGUJjMZ0eV-10" value="" style="edgeStyle=orthogonalEdgeStyle;rounded=0;orthogonalLoop=1;jettySize=auto;html=1;" edge="1" parent="1" source="016bpxPZCQfGUJjMZ0eV-11" target="016bpxPZCQfGUJjMZ0eV-13">
          <mxGeometry relative="1" as="geometry" />
        </mxCell>
        <mxCell id="016bpxPZCQfGUJjMZ0eV-11" value="cont_ledTX++" style="whiteSpace=wrap;html=1;rounded=0;" vertex="1" parent="1">
          <mxGeometry x="362" y="805" width="120" height="60" as="geometry" />
        </mxCell>
        <mxCell id="016bpxPZCQfGUJjMZ0eV-13" value="main" style="rounded=0;whiteSpace=wrap;html=1;" vertex="1" parent="1">
          <mxGeometry x="522" y="805" width="120" height="60" as="geometry" />
        </mxCell>
        <mxCell id="016bpxPZCQfGUJjMZ0eV-15" value="main" style="rounded=0;whiteSpace=wrap;html=1;" vertex="1" parent="1">
          <mxGeometry x="360" y="890" width="120" height="60" as="geometry" />
        </mxCell>
        <mxCell id="016bpxPZCQfGUJjMZ0eV-34" value="" style="edgeStyle=orthogonalEdgeStyle;rounded=0;orthogonalLoop=1;jettySize=auto;html=1;" edge="1" parent="1" source="016bpxPZCQfGUJjMZ0eV-35" target="016bpxPZCQfGUJjMZ0eV-39">
          <mxGeometry relative="1" as="geometry" />
        </mxCell>
        <mxCell id="016bpxPZCQfGUJjMZ0eV-35" value="Timer2" style="rounded=0;whiteSpace=wrap;html=1;" vertex="1" parent="1">
          <mxGeometry x="42" y="975" width="120" height="60" as="geometry" />
        </mxCell>
        <mxCell id="016bpxPZCQfGUJjMZ0eV-36" value="" style="edgeStyle=orthogonalEdgeStyle;rounded=0;orthogonalLoop=1;jettySize=auto;html=1;" edge="1" parent="1" source="016bpxPZCQfGUJjMZ0eV-39" target="016bpxPZCQfGUJjMZ0eV-41">
          <mxGeometry relative="1" as="geometry" />
        </mxCell>
        <mxCell id="016bpxPZCQfGUJjMZ0eV-37" value="yes" style="edgeLabel;html=1;align=center;verticalAlign=middle;resizable=0;points=[];" connectable="0" vertex="1" parent="016bpxPZCQfGUJjMZ0eV-36">
          <mxGeometry x="-0.2963" y="-1" relative="1" as="geometry">
            <mxPoint as="offset" />
          </mxGeometry>
        </mxCell>
        <mxCell id="016bpxPZCQfGUJjMZ0eV-38" style="edgeStyle=orthogonalEdgeStyle;rounded=0;orthogonalLoop=1;jettySize=auto;html=1;entryX=0;entryY=0.5;entryDx=0;entryDy=0;" edge="1" parent="1" source="016bpxPZCQfGUJjMZ0eV-39" target="016bpxPZCQfGUJjMZ0eV-43">
          <mxGeometry relative="1" as="geometry">
            <Array as="points">
              <mxPoint x="257" y="1090" />
            </Array>
          </mxGeometry>
        </mxCell>
        <mxCell id="016bpxPZCQfGUJjMZ0eV-47" value="no" style="edgeLabel;html=1;align=center;verticalAlign=middle;resizable=0;points=[];" connectable="0" vertex="1" parent="016bpxPZCQfGUJjMZ0eV-38">
          <mxGeometry x="0.4527" y="1" relative="1" as="geometry">
            <mxPoint as="offset" />
          </mxGeometry>
        </mxCell>
        <mxCell id="016bpxPZCQfGUJjMZ0eV-39" value="Flag Match0" style="rhombus;whiteSpace=wrap;html=1;rounded=0;" vertex="1" parent="1">
          <mxGeometry x="212" y="960" width="90" height="90" as="geometry" />
        </mxCell>
        <mxCell id="016bpxPZCQfGUJjMZ0eV-40" value="" style="edgeStyle=orthogonalEdgeStyle;rounded=0;orthogonalLoop=1;jettySize=auto;html=1;" edge="1" parent="1" source="016bpxPZCQfGUJjMZ0eV-41" target="016bpxPZCQfGUJjMZ0eV-42">
          <mxGeometry relative="1" as="geometry" />
        </mxCell>
        <mxCell id="016bpxPZCQfGUJjMZ0eV-41" value="cont_step++" style="whiteSpace=wrap;html=1;rounded=0;" vertex="1" parent="1">
          <mxGeometry x="362" y="975" width="120" height="60" as="geometry" />
        </mxCell>
        <mxCell id="016bpxPZCQfGUJjMZ0eV-42" value="main" style="rounded=0;whiteSpace=wrap;html=1;" vertex="1" parent="1">
          <mxGeometry x="522" y="975" width="120" height="60" as="geometry" />
        </mxCell>
        <mxCell id="016bpxPZCQfGUJjMZ0eV-43" value="main" style="rounded=0;whiteSpace=wrap;html=1;" vertex="1" parent="1">
          <mxGeometry x="360" y="1060" width="120" height="60" as="geometry" />
        </mxCell>
      </root>
    </mxGraphModel>
  </diagram>
</mxfile>
